<?xml version="1.0" standalone="no"?>
<!DOCTYPE svg PUBLIC "-//W3C//DTD SVG 20010904//EN"
 "http://www.w3.org/TR/2001/REC-SVG-20010904/DTD/svg10.dtd">
<svg version="1.0" xmlns="http://www.w3.org/2000/svg"
 width="480.000000pt" height="480.000000pt" viewBox="0 0 480.000000 480.000000"
 preserveAspectRatio="xMidYMid meet">
<metadata>
Created by potrace 1.14, written by Peter Selinger 2001-2017
</metadata>
<g transform="translate(0.000000,480.000000) scale(0.100000,-0.100000)"
fill="#000000" stroke="none">
<path d="M1770 4758 c-18 -29 -28 -58 -47 -133 -3 -11 -7 -78 -9 -150 -5 -171
18 -261 86 -339 33 -37 57 -116 39 -126 -231 -128 -296 -194 -409 -418 -23
-45 -45 -80 -49 -78 -6 4 -114 20 -206 31 -22 3 -67 9 -100 15 -68 11 -114 17
-197 26 -57 6 -58 6 -58 -18 0 -26 18 -32 150 -54 14 -3 56 -11 93 -20 38 -8
114 -24 170 -35 56 -11 105 -23 110 -28 4 -4 1 -23 -7 -43 l-15 -35 -128 3
c-70 1 -207 4 -303 6 l-175 3 -3 -26 c-3 -24 -1 -26 52 -28 30 -1 64 -4 76 -6
11 -2 64 -7 118 -10 53 -4 113 -8 132 -10 19 -2 71 -7 115 -10 44 -4 81 -8 81
-9 1 0 -7 -24 -17 -51 l-19 -51 -97 -17 c-54 -9 -107 -19 -118 -21 -11 -2 -40
-7 -65 -11 -25 -4 -54 -9 -65 -12 -11 -2 -50 -9 -87 -15 -66 -11 -68 -13 -68
-40 0 -16 3 -27 8 -25 7 4 49 9 195 23 34 3 73 7 87 10 14 2 56 6 95 10 38 4
73 8 78 11 4 2 7 -1 7 -7 0 -25 -30 -79 -70 -125 -52 -60 -134 -184 -184 -278
-66 -126 -166 -407 -191 -537 -3 -14 -9 -47 -15 -75 -38 -194 -55 -371 -55
-595 0 -143 2 -158 23 -200 13 -25 38 -58 55 -74 36 -33 127 -76 160 -76 37 0
45 -12 83 -125 20 -61 44 -128 53 -150 22 -55 118 -244 141 -280 11 -16 23
-37 27 -45 13 -30 146 -202 197 -255 l52 -55 903 0 903 0 47 48 c145 152 275
354 355 552 15 36 31 74 36 85 5 11 24 64 41 118 27 86 34 98 57 103 81 18
104 27 148 57 31 21 58 51 78 87 l31 55 -1 175 c-2 444 -85 834 -249 1162 -52
103 -157 265 -205 316 -38 40 -81 136 -52 119 4 -3 41 -8 82 -11 86 -8 152
-15 195 -21 17 -2 62 -7 100 -10 39 -4 73 -9 78 -12 4 -2 7 9 7 24 0 28 -3 29
-72 42 -198 35 -405 73 -419 77 -8 2 -22 27 -31 54 l-16 50 36 1 c21 1 48 2
62 4 14 1 66 5 115 9 50 4 113 9 140 12 58 7 110 11 178 13 43 1 47 3 47 25 0
31 -9 33 -100 30 -41 -2 -172 -5 -292 -7 l-216 -4 -18 39 c-9 21 -15 40 -13
42 2 2 20 7 39 10 19 3 112 21 205 41 94 19 184 38 200 41 17 3 37 7 45 9 8 2
21 4 28 4 6 1 12 13 12 27 0 26 -1 26 -57 20 -32 -3 -69 -8 -83 -10 -28 -5
-72 -12 -145 -21 -27 -4 -61 -9 -75 -11 -14 -2 -61 -9 -105 -15 -44 -6 -82
-12 -86 -15 -10 -6 -33 26 -69 96 -48 95 -111 189 -161 240 -62 63 -67 67
-207 141 -27 15 -41 28 -37 37 3 7 5 24 5 37 0 12 18 45 41 73 64 82 82 144
85 302 3 111 0 148 -17 209 -23 86 -44 130 -66 138 -40 15 -142 -77 -207 -187
-27 -47 -67 -138 -68 -155 0 -2 -5 -26 -12 -52 -13 -49 -13 -131 -2 -193 4
-19 2 -54 -4 -77 -10 -35 -15 -41 -34 -36 -36 9 -458 12 -509 4 -80 -13 -90 9
-75 172 4 52 0 99 -16 177 -9 44 -85 187 -127 239 -45 58 -113 111 -141 111
-10 0 -27 -15 -38 -32z"/>
</g>
</svg>
